<?xml version="1.0" encoding="UTF-8" standalone="no"?>
<!DOCTYPE svg PUBLIC "-//W3C//DTD SVG 1.1//EN" "http://www.w3.org/Graphics/SVG/1.1/DTD/svg11.dtd">
<svg width="100%" height="100%" viewBox="0 0 173 62" version="1.1" xmlns="http://www.w3.org/2000/svg" xmlns:xlink="http://www.w3.org/1999/xlink" xml:space="preserve" xmlns:serif="http://www.serif.com/" style="fill-rule:evenodd;clip-rule:evenodd;stroke-linejoin:round;stroke-miterlimit:2;">
    <g transform="matrix(1,0,0,1,-64,-174)">
        <g id="Mesa-de-trabajo2" serif:id="Mesa de trabajo2" transform="matrix(1.01769,0,0,1.03357,-2.2111,-7.0926)">
            <rect x="65.06" y="175.211" width="169.616" height="59.578" style="fill:none;"/>
            <g transform="matrix(0.98262,0,0,0.967521,62.1125,174.243)">
                <g transform="matrix(1.30011,0,0,1.30011,40.1669,28.2051)">
                    <path d="M5.007,11.969C4.214,11.969 3.44,12.205 2.781,12.647C2.121,13.09 1.608,13.719 1.305,14.454C0.687,15.955 1.031,17.688 2.174,18.84C3.316,19.986 5.045,20.332 6.54,19.713C7.273,19.408 7.899,18.891 8.338,18.23C9.395,16.639 9.184,14.505 7.838,13.15C7.089,12.396 6.07,11.971 5.007,11.969Z" style="fill:rgb(99,102,241);fill-rule:nonzero;"/>
                </g>
                <g transform="matrix(-1,0,0,1,157.94,0.315767)">
                    <path d="M134.296,15.558L122,10.281C122,9.602 122.13,8.917 122.398,8.266C122.794,7.303 123.468,6.478 124.333,5.897C125.196,5.318 126.209,5.009 127.248,5.008L148.633,5.008C150.026,5.011 151.362,5.569 152.345,6.557C154.11,8.333 154.385,11.13 153,13.216C152.424,14.083 151.604,14.759 150.643,15.16C149.921,15.459 149.156,15.586 148.404,15.553C148.353,15.556 148.301,15.558 148.247,15.558L134.296,15.558Z" style="fill:url(#_Linear1);fill-rule:nonzero;"/>
                </g>
                <g transform="matrix(1,0,0,1,-102,0.315767)">
                    <path d="M144.191,36.377L144.188,36.377L134.296,36.377L134.296,47.736C134.298,48.928 133.96,50.125 133.266,51.17C132.591,52.185 131.63,52.978 130.505,53.447C129.745,53.762 128.945,53.914 128.152,53.913L128.144,53.913C126.544,53.909 124.971,53.282 123.8,52.106C122.627,50.925 122.002,49.344 122,47.737L122,47.734L122,10.281C122,9.602 122.13,8.917 122.398,8.266C122.794,7.303 123.468,6.478 124.333,5.897C125.196,5.318 126.209,5.009 127.248,5.008L148.633,5.008C150.026,5.011 151.362,5.569 152.345,6.557C154.11,8.333 154.385,11.13 153,13.216C152.424,14.083 151.604,14.759 150.643,15.16C149.921,15.459 149.156,15.586 148.404,15.553C148.353,15.556 148.301,15.558 148.247,15.558L134.296,15.558L134.296,25.828L144.19,25.828L144.19,25.828C145.583,25.831 146.919,26.388 147.901,27.376C148.911,28.392 149.433,29.741 149.436,31.1L149.436,31.105C149.437,32.122 149.149,33.144 148.557,34.035C147.981,34.902 147.16,35.579 146.2,35.979C145.551,36.248 144.868,36.378 144.191,36.377Z" style="fill:rgb(99,102,241);fill-rule:nonzero;"/>
                </g>
            </g>
            <g transform="matrix(2.33984,0,0,2.30388,15.0141,133.664)">
                <g transform="matrix(11.7587,0,0,11.7587,46.8883,28.29)">
                    <path d="M0.55,-0.708L0.55,-0.532L0.272,-0.532L0.272,-0.434L0.472,-0.434L0.472,-0.267L0.272,-0.267L0.272,-0L0.05,-0L0.05,-0.708L0.55,-0.708Z" style="fill:white;fill-rule:nonzero;"/>
                </g>
                <g transform="matrix(11.7587,0,0,11.7587,53.6496,28.29)">
                    <path d="M0.02,-0.282C0.02,-0.341 0.03,-0.393 0.051,-0.437C0.071,-0.48 0.099,-0.514 0.134,-0.537C0.169,-0.56 0.209,-0.571 0.253,-0.571C0.29,-0.571 0.321,-0.564 0.348,-0.549C0.375,-0.534 0.395,-0.513 0.409,-0.487L0.409,-0.564L0.63,-0.564L0.63,-0L0.409,-0L0.409,-0.077C0.395,-0.051 0.375,-0.031 0.348,-0.016C0.321,-0 0.29,0.007 0.253,0.007C0.209,0.007 0.169,-0.005 0.134,-0.028C0.099,-0.05 0.071,-0.084 0.051,-0.128C0.03,-0.171 0.02,-0.223 0.02,-0.282ZM0.409,-0.282C0.409,-0.312 0.401,-0.335 0.386,-0.352C0.371,-0.369 0.351,-0.377 0.327,-0.377C0.303,-0.377 0.283,-0.369 0.268,-0.352C0.253,-0.335 0.245,-0.312 0.245,-0.282C0.245,-0.252 0.253,-0.229 0.268,-0.212C0.283,-0.195 0.303,-0.187 0.327,-0.187C0.351,-0.187 0.371,-0.195 0.386,-0.212C0.401,-0.229 0.409,-0.252 0.409,-0.282Z" style="fill:white;fill-rule:nonzero;"/>
                </g>
                <g transform="matrix(11.7587,0,0,11.7587,61.6455,28.29)">
                    <path d="M0.803,-0.568C0.875,-0.568 0.931,-0.546 0.971,-0.503C1.01,-0.46 1.03,-0.401 1.03,-0.327L1.03,-0L0.809,-0L0.809,-0.299C0.809,-0.323 0.802,-0.342 0.788,-0.356C0.773,-0.369 0.754,-0.376 0.73,-0.376C0.705,-0.376 0.686,-0.369 0.672,-0.356C0.658,-0.342 0.651,-0.323 0.651,-0.299L0.651,-0L0.43,-0L0.43,-0.299C0.43,-0.323 0.423,-0.342 0.409,-0.356C0.394,-0.369 0.375,-0.376 0.351,-0.376C0.326,-0.376 0.307,-0.369 0.293,-0.356C0.279,-0.342 0.272,-0.323 0.272,-0.299L0.272,-0L0.05,-0L0.05,-0.564L0.272,-0.564L0.272,-0.488C0.288,-0.512 0.31,-0.531 0.338,-0.546C0.365,-0.561 0.398,-0.568 0.435,-0.568C0.476,-0.568 0.512,-0.559 0.543,-0.542C0.574,-0.524 0.599,-0.499 0.618,-0.467C0.639,-0.496 0.665,-0.521 0.697,-0.54C0.729,-0.559 0.764,-0.568 0.803,-0.568Z" style="fill:white;fill-rule:nonzero;"/>
                </g>
                <g transform="matrix(11.7587,0,0,11.7587,74.2978,28.29)">
                    <path d="M0.162,-0.609C0.123,-0.609 0.092,-0.619 0.069,-0.64C0.046,-0.661 0.034,-0.687 0.034,-0.718C0.034,-0.75 0.046,-0.777 0.069,-0.798C0.092,-0.819 0.123,-0.829 0.162,-0.829C0.2,-0.829 0.231,-0.819 0.254,-0.798C0.277,-0.777 0.289,-0.75 0.289,-0.718C0.289,-0.687 0.277,-0.661 0.254,-0.64C0.231,-0.619 0.2,-0.609 0.162,-0.609ZM0.272,-0.564L0.272,-0L0.05,-0L0.05,-0.564L0.272,-0.564Z" style="fill:white;fill-rule:nonzero;"/>
                </g>
                <g transform="matrix(11.7587,0,0,11.7587,78.0841,28.29)">
                    <rect x="0.05" y="-0.74" width="0.222" height="0.74" style="fill:white;fill-rule:nonzero;"/>
                </g>
                <g transform="matrix(11.7587,0,0,11.7587,81.8704,28.29)">
                    <path d="M0.162,-0.609C0.123,-0.609 0.092,-0.619 0.069,-0.64C0.046,-0.661 0.034,-0.687 0.034,-0.718C0.034,-0.75 0.046,-0.777 0.069,-0.798C0.092,-0.819 0.123,-0.829 0.162,-0.829C0.2,-0.829 0.231,-0.819 0.254,-0.798C0.277,-0.777 0.289,-0.75 0.289,-0.718C0.289,-0.687 0.277,-0.661 0.254,-0.64C0.231,-0.619 0.2,-0.609 0.162,-0.609ZM0.272,-0.564L0.272,-0L0.05,-0L0.05,-0.564L0.272,-0.564Z" style="fill:white;fill-rule:nonzero;"/>
                </g>
                <g transform="matrix(11.7587,0,0,11.7587,85.6567,28.29)">
                    <path d="M0.02,-0.282C0.02,-0.341 0.03,-0.393 0.051,-0.437C0.071,-0.48 0.099,-0.514 0.134,-0.537C0.169,-0.56 0.209,-0.571 0.253,-0.571C0.29,-0.571 0.321,-0.564 0.348,-0.549C0.375,-0.534 0.395,-0.513 0.409,-0.487L0.409,-0.564L0.63,-0.564L0.63,-0L0.409,-0L0.409,-0.077C0.395,-0.051 0.375,-0.031 0.348,-0.016C0.321,-0 0.29,0.007 0.253,0.007C0.209,0.007 0.169,-0.005 0.134,-0.028C0.099,-0.05 0.071,-0.084 0.051,-0.128C0.03,-0.171 0.02,-0.223 0.02,-0.282ZM0.409,-0.282C0.409,-0.312 0.401,-0.335 0.386,-0.352C0.371,-0.369 0.351,-0.377 0.327,-0.377C0.303,-0.377 0.283,-0.369 0.268,-0.352C0.253,-0.335 0.245,-0.312 0.245,-0.282C0.245,-0.252 0.253,-0.229 0.268,-0.212C0.283,-0.195 0.303,-0.187 0.327,-0.187C0.351,-0.187 0.371,-0.195 0.386,-0.212C0.401,-0.229 0.409,-0.252 0.409,-0.282Z" style="fill:white;fill-rule:nonzero;"/>
                </g>
                <g transform="matrix(11.7587,0,0,11.7587,46.8883,40.3873)">
                    <path d="M0.606,-0.708L0.606,-0.532L0.418,-0.532L0.418,-0L0.196,-0L0.196,-0.532L0.01,-0.532L0.01,-0.708L0.606,-0.708Z" style="fill:white;fill-rule:nonzero;"/>
                </g>
                <g transform="matrix(11.7587,0,0,11.7587,54.1317,40.3873)">
                    <path d="M0.162,-0.609C0.123,-0.609 0.092,-0.619 0.069,-0.64C0.046,-0.661 0.034,-0.687 0.034,-0.718C0.034,-0.75 0.046,-0.777 0.069,-0.798C0.092,-0.819 0.123,-0.829 0.162,-0.829C0.2,-0.829 0.231,-0.819 0.254,-0.798C0.277,-0.777 0.289,-0.75 0.289,-0.718C0.289,-0.687 0.277,-0.661 0.254,-0.64C0.231,-0.619 0.2,-0.609 0.162,-0.609ZM0.272,-0.564L0.272,-0L0.05,-0L0.05,-0.564L0.272,-0.564Z" style="fill:white;fill-rule:nonzero;"/>
                </g>
                <g transform="matrix(11.7587,0,0,11.7587,57.918,40.3873)">
                    <path d="M0.272,-0.487C0.286,-0.513 0.306,-0.534 0.333,-0.549C0.359,-0.564 0.39,-0.571 0.427,-0.571C0.471,-0.571 0.511,-0.56 0.546,-0.537C0.581,-0.514 0.609,-0.48 0.63,-0.437C0.65,-0.393 0.66,-0.341 0.66,-0.282C0.66,-0.223 0.65,-0.171 0.63,-0.128C0.609,-0.084 0.581,-0.05 0.546,-0.028C0.511,-0.005 0.471,0.007 0.427,0.007C0.39,0.007 0.359,-0 0.333,-0.016C0.306,-0.031 0.286,-0.051 0.272,-0.077L0.272,0.27L0.05,0.27L0.05,-0.564L0.272,-0.564L0.272,-0.487ZM0.435,-0.282C0.435,-0.312 0.427,-0.335 0.412,-0.352C0.397,-0.369 0.377,-0.377 0.353,-0.377C0.329,-0.377 0.309,-0.369 0.294,-0.352C0.279,-0.335 0.271,-0.312 0.271,-0.282C0.271,-0.252 0.279,-0.229 0.294,-0.212C0.309,-0.195 0.329,-0.187 0.353,-0.187C0.377,-0.187 0.397,-0.195 0.412,-0.212C0.427,-0.229 0.435,-0.252 0.435,-0.282Z" style="fill:white;fill-rule:nonzero;"/>
                </g>
                <g transform="matrix(11.7587,0,0,11.7587,65.9139,40.3873)">
                    <path d="M0.301,0.007C0.248,0.007 0.201,-0.002 0.16,-0.019C0.119,-0.036 0.086,-0.06 0.062,-0.091C0.038,-0.122 0.024,-0.156 0.021,-0.195L0.234,-0.195C0.237,-0.178 0.244,-0.166 0.256,-0.158C0.267,-0.15 0.282,-0.146 0.3,-0.146C0.311,-0.146 0.32,-0.149 0.327,-0.154C0.334,-0.159 0.337,-0.165 0.337,-0.172C0.337,-0.185 0.33,-0.194 0.316,-0.199C0.302,-0.204 0.278,-0.21 0.245,-0.217C0.204,-0.225 0.171,-0.234 0.145,-0.243C0.118,-0.252 0.095,-0.268 0.076,-0.291C0.056,-0.314 0.046,-0.345 0.046,-0.385C0.046,-0.42 0.055,-0.451 0.074,-0.48C0.092,-0.508 0.119,-0.53 0.155,-0.547C0.191,-0.563 0.235,-0.571 0.286,-0.571C0.362,-0.571 0.422,-0.552 0.465,-0.515C0.507,-0.478 0.533,-0.429 0.542,-0.369L0.345,-0.369C0.342,-0.384 0.335,-0.396 0.324,-0.405C0.313,-0.413 0.299,-0.417 0.281,-0.417C0.27,-0.417 0.261,-0.415 0.255,-0.411C0.249,-0.406 0.246,-0.4 0.246,-0.391C0.246,-0.38 0.253,-0.371 0.267,-0.366C0.281,-0.36 0.303,-0.354 0.334,-0.348C0.375,-0.34 0.409,-0.331 0.437,-0.321C0.465,-0.311 0.489,-0.294 0.51,-0.27C0.531,-0.245 0.541,-0.212 0.541,-0.169C0.541,-0.136 0.531,-0.106 0.512,-0.079C0.493,-0.052 0.465,-0.031 0.429,-0.016C0.392,-0.001 0.35,0.007 0.301,0.007Z" style="fill:white;fill-rule:nonzero;"/>
                </g>
                <g transform="matrix(11.7587,0,0,11.7587,72.7222,40.3873)">
                    <path d="M0.401,-0.189L0.401,-0L0.317,-0C0.162,-0 0.085,-0.077 0.085,-0.231L0.085,-0.379L0.015,-0.379L0.015,-0.564L0.085,-0.564L0.085,-0.7L0.307,-0.7L0.307,-0.564L0.399,-0.564L0.399,-0.379L0.307,-0.379L0.307,-0.227C0.307,-0.214 0.31,-0.204 0.317,-0.198C0.323,-0.192 0.333,-0.189 0.348,-0.189L0.401,-0.189Z" style="fill:white;fill-rule:nonzero;"/>
                </g>
                <g transform="matrix(11.7587,0,0,11.7587,77.8489,40.3873)">
                    <path d="M0.596,-0.287C0.596,-0.272 0.595,-0.257 0.593,-0.243L0.236,-0.243C0.239,-0.194 0.26,-0.17 0.297,-0.17C0.321,-0.17 0.338,-0.181 0.349,-0.203L0.584,-0.203C0.576,-0.163 0.559,-0.127 0.534,-0.096C0.508,-0.064 0.475,-0.039 0.437,-0.021C0.397,-0.002 0.355,0.007 0.308,0.007C0.252,0.007 0.202,-0.005 0.159,-0.028C0.115,-0.051 0.081,-0.085 0.057,-0.129C0.032,-0.172 0.02,-0.223 0.02,-0.282C0.02,-0.341 0.032,-0.392 0.057,-0.436C0.081,-0.479 0.115,-0.513 0.159,-0.536C0.202,-0.559 0.252,-0.571 0.308,-0.571C0.364,-0.571 0.414,-0.56 0.458,-0.537C0.501,-0.514 0.535,-0.481 0.56,-0.438C0.584,-0.395 0.596,-0.345 0.596,-0.287ZM0.371,-0.34C0.371,-0.359 0.365,-0.373 0.353,-0.383C0.341,-0.392 0.326,-0.397 0.308,-0.397C0.269,-0.397 0.246,-0.378 0.239,-0.34L0.371,-0.34Z" style="fill:white;fill-rule:nonzero;"/>
                </g>
                <g transform="matrix(11.7587,0,0,11.7587,85.0923,40.3873)">
                    <path d="M0.272,-0.46C0.295,-0.493 0.322,-0.519 0.355,-0.539C0.388,-0.558 0.422,-0.568 0.457,-0.568L0.457,-0.331L0.394,-0.331C0.352,-0.331 0.321,-0.324 0.302,-0.309C0.282,-0.294 0.272,-0.268 0.272,-0.231L0.272,-0L0.05,-0L0.05,-0.564L0.272,-0.564L0.272,-0.46Z" style="fill:white;fill-rule:nonzero;"/>
                </g>
            </g>
        </g>
    </g>
    <defs>
        <linearGradient id="_Linear1" x1="0" y1="0" x2="1" y2="0" gradientUnits="userSpaceOnUse" gradientTransform="matrix(-17,0,0,17,147.94,10.2831)"><stop offset="0" style="stop-color:rgb(99,185,241);stop-opacity:1"/><stop offset="1" style="stop-color:rgb(0,134,221);stop-opacity:1"/></linearGradient>
    </defs>
</svg>
