<?xml version="1.0" encoding="UTF-8" standalone="no"?>
<!DOCTYPE svg PUBLIC "-//W3C//DTD SVG 1.1//EN" "http://www.w3.org/Graphics/SVG/1.1/DTD/svg11.dtd">
<svg width="100%" height="100%" viewBox="0 0 32 32" version="1.1" xmlns="http://www.w3.org/2000/svg" xmlns:xlink="http://www.w3.org/1999/xlink" xml:space="preserve" xmlns:serif="http://www.serif.com/" style="fill-rule:evenodd;clip-rule:evenodd;stroke-linejoin:round;stroke-miterlimit:2;">
    <g id="Mesa-de-trabajo1" serif:id="Mesa de trabajo1" transform="matrix(1,0,0,1,61,173)">
        <rect x="-61" y="-173" width="32" height="32" style="fill:none;"/>
        <g transform="matrix(0.5,0,0,0.5,-58.9849,-171.888)">
            <g transform="matrix(1.30011,0,0,1.30011,40.1669,28.2051)">
                <path d="M5.007,11.969C4.214,11.969 3.44,12.205 2.781,12.647C2.121,13.09 1.608,13.719 1.305,14.454C0.687,15.955 1.031,17.688 2.174,18.84C3.316,19.986 5.045,20.332 6.54,19.713C7.273,19.408 7.899,18.891 8.338,18.23C9.395,16.639 9.184,14.505 7.838,13.15C7.089,12.396 6.07,11.971 5.007,11.969Z" style="fill:rgb(99,102,241);fill-rule:nonzero;"/>
            </g>
            <g transform="matrix(-1,0,0,1,157.94,0.315767)">
                <path d="M134.296,15.558L122,10.281C122,9.602 122.13,8.917 122.398,8.266C122.794,7.303 123.468,6.478 124.333,5.897C125.196,5.318 126.209,5.009 127.248,5.008L148.633,5.008C150.026,5.011 151.362,5.569 152.345,6.557C154.11,8.333 154.385,11.13 153,13.216C152.424,14.083 151.604,14.759 150.643,15.16C149.921,15.459 149.156,15.586 148.404,15.553C148.353,15.556 148.301,15.558 148.247,15.558L134.296,15.558Z" style="fill:url(#_Linear1);fill-rule:nonzero;"/>
            </g>
            <g transform="matrix(1,0,0,1,-102,0.315767)">
                <path d="M144.191,36.377L144.188,36.377L134.296,36.377L134.296,47.736C134.298,48.928 133.96,50.125 133.266,51.17C132.591,52.185 131.63,52.978 130.505,53.447C129.745,53.762 128.945,53.914 128.152,53.913L128.144,53.913C126.544,53.909 124.971,53.282 123.8,52.106C122.627,50.925 122.002,49.344 122,47.737L122,47.734L122,10.281C122,9.602 122.13,8.917 122.398,8.266C122.794,7.303 123.468,6.478 124.333,5.897C125.196,5.318 126.209,5.009 127.248,5.008L148.633,5.008C150.026,5.011 151.362,5.569 152.345,6.557C154.11,8.333 154.385,11.13 153,13.216C152.424,14.083 151.604,14.759 150.643,15.16C149.921,15.459 149.156,15.586 148.404,15.553C148.353,15.556 148.301,15.558 148.247,15.558L134.296,15.558L134.296,25.828L144.19,25.828L144.19,25.828C145.583,25.831 146.919,26.388 147.901,27.376C148.911,28.392 149.433,29.741 149.436,31.1L149.436,31.105C149.437,32.122 149.149,33.144 148.557,34.035C147.981,34.902 147.16,35.579 146.2,35.979C145.551,36.248 144.868,36.378 144.191,36.377Z" style="fill:rgb(99,102,241);fill-rule:nonzero;"/>
            </g>
        </g>
    </g>
    <defs>
        <linearGradient id="_Linear1" x1="0" y1="0" x2="1" y2="0" gradientUnits="userSpaceOnUse" gradientTransform="matrix(-17,0,0,17,147.94,10.2831)"><stop offset="0" style="stop-color:rgb(99,185,241);stop-opacity:1"/><stop offset="1" style="stop-color:rgb(0,134,221);stop-opacity:1"/></linearGradient>
    </defs>
</svg>
